<svg width="34" height="35" viewBox="0 0 34 35" fill="none" xmlns="http://www.w3.org/2000/svg">
<path d="M1.96327 0C0.428026 2.71083 0.578875 6.71019 2.31773 10.2696C4.03726 13.7919 7.25265 16.8312 11.7187 17.827C11.7781 17.5297 11.845 17.2325 11.9119 16.9352C11.9193 14.6316 11.3025 11.1985 9.94267 8.0552C8.29299 4.24161 5.62527 0.888747 1.96327 0ZM3.12028 2.24045C7.00743 3.41454 7.8397 9.04353 7.13376 10.8641C2.38163 9.5414 0.938535 4.41847 3.12028 2.24045ZM19.224 7.81741C19.1868 7.862 19.0605 8.00318 18.9713 8.33015C18.8673 8.70913 18.8227 9.26646 18.897 9.96497C19.0456 11.4586 19.276 12.603 19.6401 13.7102C19.707 12.7665 19.8556 11.8673 20.1157 10.9459C20.0637 10.3217 19.9522 9.6603 19.7442 8.90977V8.90234C19.5807 8.29299 19.3503 7.94374 19.2389 7.83227L19.224 7.81741ZM23.6306 7.84713C23.6083 7.84713 23.586 7.84713 23.5637 7.85456C23.207 7.89172 22.5828 8.25584 22.1221 9.33333V9.34076H22.1146C21.2527 11.3248 20.9554 12.8185 20.9554 14.7505C20.9628 14.7728 20.9851 14.8025 20.9926 14.8174C22.4565 13.0934 23.638 12.0902 24.1359 9.48195C24.2473 8.85775 24.1805 8.42675 24.069 8.18896C23.9575 7.95117 23.8461 7.88429 23.69 7.85456C23.6677 7.84713 23.6529 7.84713 23.6306 7.84713ZM14.2006 8.99151L13.0711 9.70488C13.7399 10.7527 14.0966 11.8822 14.2749 13.0488C14.5276 12.982 14.7877 12.9597 15.0403 12.982C15.1964 12.9968 15.3524 13.0265 15.5011 13.0711L15.6348 13.1157C15.449 11.7261 15.0478 10.3142 14.2006 8.99151ZM26.8853 9.5637C26.7739 9.57113 26.6624 9.60828 26.5361 9.69002C26.1051 9.96497 25.5552 10.5892 25.0053 11.3323C24.5372 12.5955 23.8684 13.5096 23.1401 14.3716C22.7909 15.0329 22.5679 15.5159 22.4936 15.672C22.5308 15.9469 22.5977 16.155 22.6943 16.3185C22.7834 16.2665 22.88 16.2219 22.9841 16.1847H22.9915L22.9989 16.1773C23.8758 15.8949 24.8938 15.2707 25.9639 14.7208C26.8185 14.0669 27.6507 13.3609 28.156 12.7813C28.6762 12.1868 28.5648 11.2134 28.0892 10.448C27.8514 10.069 27.5244 9.77919 27.2495 9.65287C27.1157 9.59342 26.9968 9.5637 26.8853 9.5637ZM14.862 14.3047C14.6985 14.3047 14.535 14.3493 14.3716 14.4533C14.1189 14.6168 13.8365 14.9437 13.6507 15.5679C13.6284 15.6571 13.5987 15.7389 13.5764 15.828C13.8662 15.8503 14.1561 15.8875 14.4756 15.9395C14.9735 16.0138 15.4639 16.1178 15.8949 16.2367C15.9023 16.207 15.9023 16.1847 15.9098 16.155C16.103 15.0775 15.5977 14.4979 15.1072 14.3493C15.0478 14.327 14.9883 14.3195 14.9289 14.3121C14.9066 14.3121 14.8843 14.3047 14.862 14.3047ZM29.0626 15.0924C28.9586 15.0924 28.8546 15.0924 28.7431 15.1072C28.2824 15.1518 27.7473 15.345 27.1677 15.6125C26.0159 16.1624 24.7527 17.017 23.4299 17.4554C23.4225 17.4554 23.1773 17.6932 23.0807 17.9607C23.0287 18.1019 23.0138 18.2431 23.0212 18.31C23.0212 18.3397 23.0287 18.3471 23.0287 18.3546C24.6189 19.6847 27.0191 19.9002 28.7059 19.1645V19.1571C29.9246 18.6295 30.638 17.879 30.8312 17.2473C31.0318 16.6231 30.8758 16.0435 29.9321 15.3822C29.6497 15.189 29.3747 15.1072 29.0626 15.0924ZM23.4299 17.4554V17.448L23.4151 17.4554H23.4299ZM20.0637 15.8206C19.38 16.311 18.8747 17.1136 18.7187 18.1019C18.518 19.4098 18.9936 20.6359 19.8333 21.3641C19.9151 21.2378 20.0117 21.1263 20.1231 21.0223C20.3312 20.8291 20.6136 20.673 20.948 20.6582H21.0297C21.052 20.5244 21.0892 20.3832 21.1486 20.242C21.2898 19.8853 21.6242 19.4989 22.0924 19.3132C21.8248 19.0679 21.7134 18.7261 21.6911 18.4289C21.6614 18.1093 21.7134 17.8121 21.81 17.5297C21.8248 17.4777 21.8471 17.4257 21.8694 17.3811C21.5796 17.0541 21.3493 16.6454 21.2155 16.155C20.896 16.207 20.569 16.1847 20.2941 16.0064C20.2049 15.9469 20.1306 15.8875 20.0637 15.8206ZM13.2272 17.1805C13.086 17.7824 12.9671 18.3843 12.8705 18.9788L12.8854 18.9639C13.4575 19.5212 14.4087 19.6624 15.2781 19.603C15.4045 18.9268 15.5308 18.2431 15.6497 17.552C15.2558 17.448 14.7505 17.3365 14.2749 17.2622C13.896 17.2028 13.5021 17.1879 13.2272 17.1805ZM9.56369 18.5924C8.30786 18.897 6.83652 19.4544 5.45435 20.2718C2.93004 21.7654 0.671019 24.0541 0 27.0786C1.66008 28.0743 4.1242 27.7919 6.43524 26.2686C8.5828 24.8567 10.5223 22.4119 11.4066 19.1274C10.7675 18.9862 10.1582 18.8079 9.56369 18.5924ZM12.6476 20.4352C12.5658 21.0223 12.4989 21.6019 12.4395 22.189C13.1083 22.5679 13.9703 22.7611 14.587 22.6943C14.7357 22.1221 14.8769 21.5425 15.0032 20.9554C14.2378 20.9703 13.3907 20.8588 12.6476 20.4352ZM23.9427 20.4427C23.5191 20.4873 23.0881 20.5318 22.6422 20.5467C22.449 20.5541 22.449 20.5913 22.3896 20.7473C22.3599 20.8217 22.345 20.9183 22.3376 20.9777C22.3376 21 22.345 21.0223 22.3524 21.0297C22.4565 21.2081 22.5605 21.3864 22.6571 21.5722C23.7569 22.4268 24.6338 23.3259 25.3917 24.3365C25.8376 24.4406 26.38 24.4703 27.0637 24.3885C28.0446 24.2622 29.1444 23.5637 29.5531 22.8429C29.7537 22.4788 29.8057 22.1592 29.7017 21.8174C29.5902 21.4756 29.293 21.0594 28.6019 20.6359C28.6019 20.6359 28.5945 20.6359 28.5945 20.6285C27.1306 21.0817 25.4512 21.0446 23.9427 20.4427ZM21.0223 22.0255C20.9628 22.0924 20.8514 22.3153 20.8439 22.5085C20.7325 24.8047 21.1263 26.6401 22.1741 28.7357C22.4119 29.2187 22.5977 29.2707 22.9172 29.2633C23.2367 29.2558 23.7123 29.0478 24.1433 28.6911C24.5743 28.327 24.9459 27.8291 25.1391 27.3832C25.3248 26.9374 25.31 26.603 25.1911 26.4098C24.1062 24.6635 22.9692 23.3779 21.0743 22.0626L21.0446 22.0478L21.0223 22.0255ZM5.8259 22.3524C5.99681 22.3524 6.14543 22.3673 6.27176 22.4045C5.9225 25.6667 3.38408 27.086 2.1052 25.8376C2.39575 23.4968 4.61465 22.3896 5.8259 22.3524ZM19.1422 22.5011C18.5329 24.1136 17.931 25.5998 18.2431 27.1454C18.3769 27.7919 18.5626 28.1709 18.7113 28.3493C18.8599 28.5202 18.9045 28.5127 18.9565 28.5053C19.0605 28.4979 19.4469 28.2081 19.5584 27.6953C19.7144 26.9671 19.7367 26.2389 19.6847 25.5106C19.6104 25.1019 19.5584 24.6932 19.5287 24.2771C19.4321 23.7049 19.3132 23.1253 19.1943 22.5382C19.1794 22.5234 19.1645 22.5085 19.1422 22.5011ZM12.2983 23.6231C12.2834 23.7495 12.276 23.8832 12.2611 24.017C12.224 25.0202 12.3577 25.6592 12.4989 25.9639C12.6401 26.276 12.6773 26.2389 12.7442 26.2389C12.8185 26.2389 13.0488 26.1571 13.2941 25.9193C13.5318 25.689 13.7622 25.3248 13.9034 24.9384V24.931C14.0074 24.6412 14.104 24.344 14.2006 24.0541C13.5616 24.0393 12.9076 23.8907 12.2983 23.6231ZM29.6348 24.7304C29.2781 25.0053 28.8843 25.2208 28.4681 25.3917C30.8684 28.5276 31.8567 32.1985 32.0425 35L33.38 34.9108C33.1794 31.9236 32.1242 28.0594 29.6348 24.7304Z" fill="black"/>
</svg>
